<svg width="256" height="256" viewBox="0 0 256 256" fill="none" xmlns="http://www.w3.org/2000/svg" role="img" aria-label="Domain Theme Router">
  <rect width="256" height="256" rx="56" fill="#0B1220"/>
  <path d="M64 84C64 72.9543 72.9543 64 84 64H172C183.046 64 192 72.9543 192 84V172C192 183.046 183.046 192 172 192H84C72.9543 192 64 183.046 64 172V84Z" fill="#F8FAFC"/>
  <path d="M82 96C82 88.268 88.268 82 96 82H160C167.732 82 174 88.268 174 96V160C174 167.732 167.732 174 160 174H96C88.268 174 82 167.732 82 160V96Z" fill="#D9F99D"/>
  <path d="M98 111C98 103.268 104.268 97 112 97H176C183.732 97 190 103.268 190 111V175C190 182.732 183.732 189 176 189H112C104.268 189 98 182.732 98 175V111Z" fill="#14B8A6"/>
  <path d="M114 126C114 118.268 120.268 112 128 112H192C199.732 112 206 118.268 206 126V190C206 197.732 199.732 204 192 204H128C120.268 204 114 197.732 114 190V126Z" fill="#38BDF8"/>
  <path d="M126 146C126 141.582 129.582 138 134 138H186C190.418 138 194 141.582 194 146V154C194 158.418 190.418 162 186 162H134C129.582 162 126 158.418 126 154V146Z" fill="#0B1220"/>
  <path d="M126 176C126 171.582 129.582 168 134 168H166C170.418 168 174 171.582 174 176V184C174 188.418 170.418 192 166 192H134C129.582 192 126 188.418 126 184V176Z" fill="#0B1220"/>
  <circle cx="70" cy="70" r="18" fill="#F8FAFC"/>
  <circle cx="70" cy="70" r="8" fill="#14B8A6"/>
  <circle cx="40" cy="128" r="16" fill="#F8FAFC"/>
  <circle cx="40" cy="128" r="7" fill="#38BDF8"/>
  <circle cx="70" cy="186" r="18" fill="#F8FAFC"/>
  <circle cx="70" cy="186" r="8" fill="#D9F99D"/>
  <path d="M88 72H104C110.627 72 116 77.3726 116 84V97" stroke="#F8FAFC" stroke-width="10" stroke-linecap="round"/>
  <path d="M56 128H82" stroke="#F8FAFC" stroke-width="10" stroke-linecap="round"/>
  <path d="M88 184H104C110.627 184 116 178.627 116 172V159" stroke="#F8FAFC" stroke-width="10" stroke-linecap="round"/>
</svg>
